M48
; DRILL file {KiCad 5.1.9-73d0e3b20d~88~ubuntu20.04.1} date Wed Mar 24 09:58:06 2021
; FORMAT={-:-/ absolute / inch / decimal}
; #@! TF.CreationDate,2021-03-24T09:58:06+01:00
; #@! TF.GenerationSoftware,Kicad,Pcbnew,5.1.9-73d0e3b20d~88~ubuntu20.04.1
; #@! TF.FileFunction,Plated,1,2,PTH
FMAT,2
INCH
T1C0.0157
T2C0.0276
T3C0.0295
T4C0.0315
T5C0.0394
T6C0.0433
T7C0.0472
T8C0.0520
%
G90
G05
T1
X6.9Y-5.675
X7.075Y-5.85
T2
X7.0Y-4.175
X7.0Y-4.2734
T3
X7.5Y-3.9
X7.5Y-3.95
X7.5Y-4.0
T4
X5.925Y-5.775
X5.925Y-5.8537
X6.15Y-5.075
X6.15Y-5.775
X6.25Y-5.075
X6.25Y-5.775
X6.35Y-5.075
X6.35Y-5.775
X6.45Y-5.075
X6.45Y-5.775
X6.55Y-5.075
X6.55Y-5.775
X6.65Y-5.075
X6.65Y-5.775
X6.75Y-5.075
X6.75Y-5.775
X6.775Y-4.175
X6.775Y-4.2537
X6.85Y-5.075
X6.85Y-5.775
X6.925Y-3.95
X6.95Y-5.075
X6.95Y-5.775
X7.05Y-5.075
X7.05Y-5.775
X7.15Y-5.075
X7.15Y-5.775
X7.25Y-5.075
X7.25Y-5.775
X7.325Y-3.95
X7.35Y-5.075
X7.35Y-5.775
X7.45Y-5.075
X7.45Y-5.775
X7.55Y-5.075
X7.55Y-5.775
X7.65Y-5.075
X7.65Y-5.775
X7.75Y-5.075
X7.75Y-5.775
X7.85Y-5.075
X7.85Y-5.775
X7.95Y-5.075
X7.95Y-5.775
X8.05Y-5.075
X8.05Y-5.775
T5
X5.9234Y-4.2325
X6.025Y-5.375
X6.025Y-5.475
X6.025Y-5.575
X6.05Y-6.075
X6.05Y-6.175
X6.1281Y-3.075
X6.15Y-6.075
X6.15Y-6.175
X6.25Y-6.075
X6.25Y-6.175
X6.325Y-3.075
X6.35Y-6.075
X6.35Y-6.175
X6.45Y-6.075
X6.45Y-6.175
X6.5297Y-4.2325
X6.55Y-6.075
X6.55Y-6.175
X6.65Y-6.075
X6.65Y-6.175
X6.75Y-6.075
X6.75Y-6.175
X6.85Y-6.075
X6.85Y-6.175
X6.95Y-6.075
X6.95Y-6.175
X7.05Y-6.075
X7.05Y-6.175
X7.15Y-6.075
X7.15Y-6.175
X7.25Y-6.075
X7.25Y-6.175
X7.3Y-4.275
X7.35Y-6.075
X7.35Y-6.175
X7.4Y-4.275
X7.45Y-6.075
X7.45Y-6.175
X7.5Y-4.275
X7.55Y-6.075
X7.55Y-6.175
X7.65Y-6.075
X7.65Y-6.175
X7.75Y-6.075
X7.75Y-6.175
X7.85Y-6.075
X7.85Y-6.175
X7.95Y-6.075
X7.95Y-6.175
T6
X5.875Y-5.325
X5.875Y-5.625
X7.7Y-4.0
X8.0Y-4.0
T7
X7.7047Y-3.161
X7.7047Y-3.85
X8.0Y-3.0232
X8.0Y-3.85
T8
X6.8Y-3.225
X6.9969Y-3.225
X7.275Y-3.225
X7.4719Y-3.225
T0
M30
