%TF.GenerationSoftware,KiCad,Pcbnew,5.1.9-73d0e3b20d~88~ubuntu20.04.1*%
%TF.CreationDate,2021-03-24T09:58:02+01:00*%
%TF.ProjectId,TouchlessSwitch,546f7563-686c-4657-9373-537769746368,rev?*%
%TF.SameCoordinates,Original*%
%TF.FileFunction,Profile,NP*%
%FSLAX46Y46*%
G04 Gerber Fmt 4.6, Leading zero omitted, Abs format (unit mm)*
G04 Created by KiCad (PCBNEW 5.1.9-73d0e3b20d~88~ubuntu20.04.1) date 2021-03-24 09:58:02*
%MOMM*%
%LPD*%
G01*
G04 APERTURE LIST*
%TA.AperFunction,Profile*%
%ADD10C,0.050000*%
%TD*%
G04 APERTURE END LIST*
D10*
X207645000Y-94615000D02*
G75*
G02*
X208280000Y-95250000I0J-635000D01*
G01*
X208280000Y-91440000D02*
G75*
G02*
X207645000Y-92075000I-635000J0D01*
G01*
X186690000Y-94615000D02*
G75*
G02*
X186690000Y-92075000I0J1270000D01*
G01*
X170815000Y-95885000D02*
G75*
G02*
X170815000Y-98425000I0J-1270000D01*
G01*
X147320000Y-99060000D02*
G75*
G02*
X147955000Y-98425000I635000J0D01*
G01*
X147955000Y-95885000D02*
G75*
G02*
X147320000Y-95250000I0J635000D01*
G01*
X207645000Y-144780000D02*
G75*
G02*
X208280000Y-145415000I0J-635000D01*
G01*
X198120000Y-131445000D02*
G75*
G02*
X198755000Y-130810000I635000J0D01*
G01*
X198755000Y-144780000D02*
G75*
G02*
X198120000Y-144145000I0J635000D01*
G01*
X208280000Y-130175000D02*
G75*
G02*
X207645000Y-130810000I-635000J0D01*
G01*
X208280000Y-130175000D02*
X208280000Y-125095000D01*
X147320000Y-125095000D02*
X147320000Y-158115000D01*
X208280000Y-125095000D02*
X147320000Y-125095000D01*
X198755000Y-130810000D02*
X207645000Y-130810000D01*
X198120000Y-144145000D02*
X198120000Y-131445000D01*
X207645000Y-144780000D02*
X198755000Y-144780000D01*
X208280000Y-158750000D02*
X208280000Y-145415000D01*
X147320000Y-158750000D02*
X147320000Y-158115000D01*
X208280000Y-158750000D02*
X147320000Y-158750000D01*
X208280000Y-95250000D02*
X208280000Y-125095000D01*
X186690000Y-94615000D02*
X207645000Y-94615000D01*
X207645000Y-92075000D02*
X186690000Y-92075000D01*
X208280000Y-74930000D02*
X208280000Y-91440000D01*
X147320000Y-95250000D02*
X147320000Y-74930000D01*
X147320000Y-125095000D02*
X147320000Y-99060000D01*
X208280000Y-125095000D02*
X207645000Y-125095000D01*
X208280000Y-74930000D02*
X207645000Y-74930000D01*
X170815000Y-95885000D02*
X147955000Y-95885000D01*
X147955000Y-98425000D02*
X170815000Y-98425000D01*
X147320000Y-74930000D02*
X207645000Y-74930000D01*
X207645000Y-125095000D02*
X147320000Y-125095000D01*
M02*
