%TF.GenerationSoftware,KiCad,Pcbnew,5.1.9-73d0e3b20d~88~ubuntu20.04.1*%
%TF.CreationDate,2021-03-24T09:58:02+01:00*%
%TF.ProjectId,TouchlessSwitch,546f7563-686c-4657-9373-537769746368,rev?*%
%TF.SameCoordinates,Original*%
%TF.FileFunction,Legend,Bot*%
%TF.FilePolarity,Positive*%
%FSLAX46Y46*%
G04 Gerber Fmt 4.6, Leading zero omitted, Abs format (unit mm)*
G04 Created by KiCad (PCBNEW 5.1.9-73d0e3b20d~88~ubuntu20.04.1) date 2021-03-24 09:58:02*
%MOMM*%
%LPD*%
G01*
G04 APERTURE LIST*
%ADD10C,0.150000*%
G04 APERTURE END LIST*
D10*
X156908333Y-142009761D02*
X156765476Y-142057380D01*
X156527380Y-142057380D01*
X156432142Y-142009761D01*
X156384523Y-141962142D01*
X156336904Y-141866904D01*
X156336904Y-141771666D01*
X156384523Y-141676428D01*
X156432142Y-141628809D01*
X156527380Y-141581190D01*
X156717857Y-141533571D01*
X156813095Y-141485952D01*
X156860714Y-141438333D01*
X156908333Y-141343095D01*
X156908333Y-141247857D01*
X156860714Y-141152619D01*
X156813095Y-141105000D01*
X156717857Y-141057380D01*
X156479761Y-141057380D01*
X156336904Y-141105000D01*
X156003571Y-141057380D02*
X155765476Y-142057380D01*
X155575000Y-141343095D01*
X155384523Y-142057380D01*
X155146428Y-141057380D01*
X154241666Y-142057380D02*
X154813095Y-142057380D01*
X154527380Y-142057380D02*
X154527380Y-141057380D01*
X154622619Y-141200238D01*
X154717857Y-141295476D01*
X154813095Y-141343095D01*
X154813095Y-139565000D02*
X154717857Y-139612619D01*
X154575000Y-139612619D01*
X154432142Y-139565000D01*
X154336904Y-139469761D01*
X154289285Y-139374523D01*
X154241666Y-139184047D01*
X154241666Y-139041190D01*
X154289285Y-138850714D01*
X154336904Y-138755476D01*
X154432142Y-138660238D01*
X154575000Y-138612619D01*
X154670238Y-138612619D01*
X154813095Y-138660238D01*
X154860714Y-138707857D01*
X154860714Y-139041190D01*
X154670238Y-139041190D01*
X155289285Y-138612619D02*
X155289285Y-139612619D01*
X155860714Y-138612619D01*
X155860714Y-139612619D01*
X156336904Y-138612619D02*
X156336904Y-139612619D01*
X156575000Y-139612619D01*
X156717857Y-139565000D01*
X156813095Y-139469761D01*
X156860714Y-139374523D01*
X156908333Y-139184047D01*
X156908333Y-139041190D01*
X156860714Y-138850714D01*
X156813095Y-138755476D01*
X156717857Y-138660238D01*
X156575000Y-138612619D01*
X156336904Y-138612619D01*
X156813095Y-135977380D02*
X156194047Y-135977380D01*
X156527380Y-136358333D01*
X156384523Y-136358333D01*
X156289285Y-136405952D01*
X156241666Y-136453571D01*
X156194047Y-136548809D01*
X156194047Y-136786904D01*
X156241666Y-136882142D01*
X156289285Y-136929761D01*
X156384523Y-136977380D01*
X156670238Y-136977380D01*
X156765476Y-136929761D01*
X156813095Y-136882142D01*
X155908333Y-135977380D02*
X155575000Y-136977380D01*
X155241666Y-135977380D01*
X155003571Y-135977380D02*
X154384523Y-135977380D01*
X154717857Y-136358333D01*
X154575000Y-136358333D01*
X154479761Y-136405952D01*
X154432142Y-136453571D01*
X154384523Y-136548809D01*
X154384523Y-136786904D01*
X154432142Y-136882142D01*
X154479761Y-136929761D01*
X154575000Y-136977380D01*
X154860714Y-136977380D01*
X154955952Y-136929761D01*
X155003571Y-136882142D01*
M02*
